<svg xmlns="http://www.w3.org/2000/svg" viewBox="0 0 500 500" width="100%" height="100%">
  <!-- MyNDIS Heart-Handshake Logo Mark (Vectorized from Reference) -->
  <path d="M 147.2,51.3 L 173.6,51.3 L 205.4,58.3 L 232.5,71.5 L 251.2,86.3 L 277.5,67.6 L 303.2,56.8 L 330.3,51.3 L 361.4,52.1 L 384.6,57.5 L 407.9,68.4 L 430.4,85.5 L 442.8,99.5 L 453.7,115.7 L 465.3,143.7 L 470.0,168.5 L 468.4,195.7 L 463.0,216.6 L 453.7,237.6 L 442.8,254.7 L 432.8,266.3 L 443.6,283.4 L 443.6,303.5 L 439.0,312.9 L 430.4,322.2 L 421.1,327.6 L 409.5,330.7 L 409.5,343.1 L 401.7,358.6 L 387.0,369.5 L 371.4,371.1 L 367.6,385.8 L 362.9,393.6 L 355.9,400.5 L 348.9,404.4 L 341.2,406.8 L 330.3,406.8 L 328.8,416.1 L 324.1,426.2 L 315.6,435.5 L 306.3,440.9 L 297.7,443.2 L 280.7,441.7 L 269.0,435.5 L 259.7,426.2 L 239.5,444.0 L 229.4,447.9 L 218.6,448.7 L 204.6,444.8 L 193.0,435.5 L 186.0,422.3 L 184.4,413.7 L 168.1,413.7 L 152.6,406.0 L 143.3,393.6 L 140.2,375.7 L 125.4,374.2 L 113.8,368.7 L 105.3,360.2 L 100.6,351.7 L 98.3,334.6 L 79.7,330.7 L 65.7,319.1 L 59.5,306.6 L 58.7,291.1 L 61.0,283.4 L 68.0,272.5 L 55.6,257.8 L 45.5,241.5 L 37.0,222.1 L 31.6,201.1 L 30.0,167.7 L 35.4,142.1 L 44.7,119.6 L 55.6,102.6 L 78.9,78.5 L 92.1,69.2 L 110.7,59.9 L 135.5,52.9 L 146.4,52.1 Z M 147.2,52.1 L 136.3,52.9 L 111.5,59.9 L 92.9,69.2 L 79.7,78.5 L 55.6,103.3 L 44.7,120.4 L 35.4,142.9 L 30.0,168.5 L 31.6,200.3 L 37.0,221.3 L 45.5,240.7 L 55.6,257.0 L 68.0,271.7 L 58.7,291.9 L 59.5,305.9 L 65.7,318.3 L 80.4,330.7 L 98.3,333.8 L 100.6,350.9 L 105.3,359.4 L 114.6,368.7 L 126.2,374.2 L 140.2,374.9 L 143.3,392.8 L 153.4,406.0 L 168.9,413.7 L 185.2,413.7 L 186.0,421.5 L 193.0,434.7 L 205.4,444.8 L 219.3,448.7 L 228.7,447.9 L 238.7,444.0 L 258.9,426.2 L 269.8,435.5 L 281.4,441.7 L 296.9,443.2 L 305.5,440.9 L 314.8,435.5 L 324.1,425.4 L 328.8,415.3 L 329.5,406.8 L 340.4,406.8 L 348.2,404.4 L 355.1,400.5 L 362.9,392.8 L 367.6,385.0 L 370.7,371.1 L 383.9,370.3 L 396.3,363.3 L 407.1,349.3 L 409.5,342.3 L 409.5,329.9 L 420.3,327.6 L 429.6,322.2 L 441.3,308.2 L 444.4,298.9 L 444.4,287.2 L 440.5,277.2 L 432.8,265.5 L 442.8,253.9 L 453.7,236.8 L 463.0,215.9 L 468.4,194.9 L 470.0,169.3 L 465.3,144.5 L 453.7,116.5 L 442.8,100.2 L 429.6,85.5 L 407.1,68.4 L 383.9,57.5 L 360.6,52.1 L 331.1,51.3 L 303.9,56.8 L 278.3,67.6 L 252.7,86.3 L 250.4,86.3 L 231.8,71.5 L 204.6,58.3 L 172.8,51.3 L 148.0,51.3 Z M 148.7,69.2 L 172.0,69.2 L 198.4,74.6 L 219.3,83.9 L 235.6,96.3 L 234.1,100.2 L 177.4,151.4 L 170.5,162.3 L 168.1,170.1 L 169.7,187.1 L 175.1,197.2 L 183.7,205.8 L 199.2,212.8 L 213.1,212.8 L 224.0,208.9 L 293.1,149.1 L 295.4,149.1 L 422.7,278.7 L 428.1,288.8 L 427.3,300.4 L 419.6,310.5 L 412.6,313.6 L 405.6,313.6 L 394.7,307.4 L 361.4,273.3 L 355.1,272.5 L 349.7,277.9 L 350.5,284.1 L 390.8,325.3 L 394.0,334.6 L 390.8,347.0 L 385.4,352.4 L 380.0,354.8 L 373.0,355.5 L 366.8,354.0 L 320.2,307.4 L 317.1,305.9 L 312.5,306.6 L 308.6,310.5 L 308.6,317.5 L 348.2,357.9 L 353.6,367.2 L 352.8,378.8 L 345.8,388.1 L 337.3,391.2 L 328.8,390.5 L 324.9,388.9 L 280.7,343.9 L 271.3,339.2 L 257.4,337.7 L 255.0,322.9 L 245.7,309.0 L 233.3,301.2 L 224.8,298.9 L 215.5,298.9 L 213.9,285.7 L 208.5,275.6 L 201.5,268.6 L 187.5,261.6 L 175.1,260.9 L 174.3,250.0 L 170.5,239.1 L 154.9,223.6 L 143.3,219.7 L 132.4,219.7 L 120.8,223.6 L 113.8,228.3 L 82.8,259.3 L 79.7,260.1 L 78.1,258.5 L 62.6,236.8 L 51.0,208.1 L 47.8,190.2 L 47.8,167.7 L 53.3,143.7 L 68.8,114.2 L 89.8,92.5 L 102.2,83.9 L 118.5,76.2 L 134.8,71.5 L 148.0,70.0 Z M 331.1,69.2 L 365.2,70.7 L 383.9,76.2 L 397.1,82.4 L 411.8,92.5 L 425.8,106.4 L 438.2,124.3 L 446.7,142.9 L 450.6,156.1 L 452.2,184.8 L 450.6,196.5 L 443.6,219.0 L 436.6,232.9 L 425.0,249.2 L 422.7,251.6 L 418.8,250.8 L 338.1,167.7 L 304.7,135.1 L 298.5,132.0 L 290.0,132.0 L 285.3,134.4 L 229.4,184.0 L 214.7,194.9 L 199.9,195.7 L 193.7,192.6 L 187.5,185.6 L 185.2,179.4 L 185.2,171.6 L 189.1,163.1 L 254.3,104.9 L 277.5,87.8 L 293.1,79.3 L 307.8,73.8 L 330.3,70.0 Z M 148.7,70.0 L 135.5,71.5 L 119.2,76.2 L 93.6,90.1 L 68.8,115.0 L 55.6,138.3 L 47.8,168.5 L 48.6,195.7 L 51.7,210.4 L 59.5,229.8 L 78.1,257.8 L 80.4,260.1 L 82.0,259.3 L 118.5,224.4 L 131.7,219.7 L 148.0,220.5 L 160.4,226.7 L 167.4,233.7 L 173.6,246.1 L 174.3,259.3 L 175.9,260.9 L 188.3,261.6 L 202.3,268.6 L 208.5,274.8 L 213.9,284.9 L 216.2,298.9 L 229.4,299.7 L 246.5,309.0 L 255.0,322.2 L 256.6,336.1 L 258.1,337.7 L 272.1,339.2 L 281.4,343.9 L 325.7,388.9 L 336.5,391.2 L 345.1,388.1 L 352.8,378.0 L 353.6,368.0 L 348.2,358.6 L 308.6,318.3 L 307.8,312.1 L 311.7,306.6 L 317.9,305.9 L 321.0,307.4 L 367.6,354.0 L 375.3,355.5 L 384.6,352.4 L 392.4,343.1 L 393.2,330.7 L 390.8,326.0 L 350.5,284.9 L 348.9,281.0 L 350.5,275.6 L 354.4,272.5 L 362.1,273.3 L 395.5,307.4 L 406.4,313.6 L 411.8,313.6 L 418.8,310.5 L 427.3,299.7 L 428.1,289.6 L 422.7,279.5 L 294.6,149.1 L 224.8,208.9 L 213.9,212.8 L 198.4,212.8 L 182.9,205.8 L 175.1,198.0 L 169.7,187.9 L 168.1,169.3 L 170.5,161.5 L 177.4,150.7 L 235.6,97.1 L 218.6,83.9 L 197.6,74.6 L 171.2,69.2 L 149.5,69.2 Z M 331.1,70.0 L 317.9,71.5 L 293.8,79.3 L 278.3,87.8 L 258.9,101.8 L 189.1,163.9 L 185.2,172.4 L 186.8,183.3 L 194.5,192.6 L 200.7,195.7 L 213.9,194.9 L 223.2,188.7 L 284.5,134.4 L 289.2,132.0 L 299.3,132.0 L 305.5,135.1 L 421.9,251.6 L 436.6,232.2 L 445.2,214.3 L 450.6,195.7 L 452.2,184.0 L 451.4,162.3 L 442.8,134.4 L 425.8,107.2 L 411.0,92.5 L 396.3,82.4 L 383.1,76.2 L 364.5,70.7 L 331.9,69.2 Z M 132.4,236.0 L 145.6,236.8 L 151.1,239.9 L 156.5,246.1 L 158.0,260.9 L 152.6,270.2 L 105.3,315.2 L 99.8,317.5 L 89.8,317.5 L 78.1,309.8 L 75.0,302.8 L 75.0,291.9 L 77.3,286.5 L 123.1,240.7 L 131.7,236.8 Z M 132.4,236.8 L 123.9,240.7 L 79.7,284.1 L 75.0,292.7 L 75.8,304.3 L 78.1,309.0 L 88.2,316.7 L 101.4,316.7 L 106.8,313.6 L 148.7,273.3 L 155.7,265.5 L 158.0,260.1 L 156.5,246.9 L 150.3,239.9 L 144.9,236.8 L 133.2,236.0 Z M 173.6,276.4 L 185.2,277.2 L 195.3,284.1 L 199.2,293.5 L 198.4,302.0 L 195.3,308.2 L 146.4,356.3 L 138.6,359.4 L 132.4,359.4 L 123.9,356.3 L 119.2,352.4 L 114.6,343.1 L 114.6,333.8 L 119.2,323.7 L 162.7,281.8 L 172.8,277.2 Z M 173.6,277.2 L 163.5,281.8 L 119.2,324.5 L 115.4,331.5 L 114.6,342.3 L 122.3,354.8 L 130.1,358.6 L 137.9,359.4 L 148.7,354.0 L 195.3,307.4 L 198.4,301.2 L 199.2,294.2 L 195.3,284.9 L 184.4,277.2 L 174.3,276.4 Z M 218.6,314.4 L 228.7,316.0 L 238.0,323.7 L 240.3,329.2 L 240.3,340.0 L 236.4,347.0 L 193.7,390.5 L 182.1,398.2 L 174.3,399.0 L 168.1,397.4 L 159.6,390.5 L 157.3,385.8 L 156.5,372.6 L 160.4,364.9 L 205.4,319.8 L 211.6,316.0 L 217.8,315.2 Z M 218.6,315.2 L 212.4,316.0 L 206.2,319.8 L 160.4,365.6 L 157.3,371.1 L 157.3,385.0 L 165.0,395.1 L 175.1,399.0 L 183.7,397.4 L 189.9,393.6 L 236.4,346.2 L 240.3,339.2 L 240.3,329.9 L 238.0,324.5 L 231.0,317.5 L 219.3,314.4 Z M 255.0,354.0 L 268.2,354.8 L 276.0,360.2 L 280.7,369.5 L 280.7,377.3 L 276.8,385.8 L 233.3,429.3 L 225.6,432.4 L 217.0,432.4 L 209.3,429.3 L 205.4,425.4 L 201.5,417.6 L 201.5,407.5 L 205.4,399.8 L 248.1,357.1 L 254.3,354.8 Z M 255.0,354.8 L 248.8,357.1 L 205.4,400.5 L 201.5,408.3 L 202.3,419.2 L 210.0,429.3 L 217.8,432.4 L 224.8,432.4 L 232.5,429.3 L 276.8,385.0 L 280.7,376.5 L 279.1,365.6 L 273.7,358.6 L 267.5,354.8 L 255.8,354.0 Z M 295.4,382.7 L 308.6,394.3 L 312.5,400.5 L 313.2,409.9 L 309.4,419.2 L 300.1,426.2 L 286.9,426.9 L 280.7,423.8 L 271.3,415.3 L 271.3,413.0 L 290.7,392.8 L 294.6,383.5 Z M 295.4,383.5 L 290.7,393.6 L 271.3,414.5 L 278.3,421.5 L 287.6,426.9 L 296.9,426.9 L 304.7,423.1 L 311.7,414.5 L 313.2,404.4 L 308.6,395.1 L 296.2,382.7 Z" fill="#172A52" fill-rule="evenodd" />
</svg>